<svg version="1.1" id="Layer_1" xmlns="http://www.w3.org/2000/svg" xmlns:xlink="http://www.w3.org/1999/xlink" x="0px" y="0px" viewBox="271 256 250 44.1" enable-background="new 271 256 250 44.1" xml:space="preserve"><g><g><path fill="#440f15" d="M335.8,293.5c-5.5,0-9.5-4.3-9.5-10.3c0-6,4-10.3,9.5-10.3c5.6,0,9.6,4.3,9.6,10.3C345.3,289.2,341.3,293.5,335.8,293.5 M335.8,266.8c-9.2,0-16.1,7-16.1,16.4c0,9.3,6.9,16.3,16.1,16.3s16.2-7,16.2-16.3C351.9,273.8,344.9,266.8,335.8,266.8 M393.9,293.5c-5.5,0-9.5-4.3-9.5-10.3c0-6,4-10.3,9.5-10.3c5.6,0,9.6,4.3,9.6,10.3C403.5,289.2,399.5,293.5,393.9,293.5 M393.9,266.8c-9.2,0-16.1,7-16.1,16.4c0,9.3,6.9,16.3,16.1,16.3s16.2-7,16.2-16.3C410.1,273.8,403.2,266.8,393.9,266.8 M366.6,256h-6.4v11.5h-6.2v5.9h6.2v14.1c0,6.7,4,11.1,10.1,11.1c2.2,0,3.9-0.2,3.9-0.2v-5.9c0,0-1.5,0.1-2.6,0.1c-0.4,0-0.8,0-1.2,0c-3.1-0.2-3.7-2.7-3.7-4.8v-14.4h7.5v-5.9h-7.5V256H366.6z M301.9,266.8L301.9,266.8c-3.8,0-7,1.3-9.2,3.7c-2.2-2.4-5.6-3.7-9.4-3.7c-7.4,0-12.4,4.9-12.4,12.4v19.5h6.3v-19.8c0-3.5,2.4-6.1,6.1-6.1c3.6,0,6.2,2.6,6.2,6.1v19.8h6.3v-19.5c0-0.9-0.1-1.9-0.2-2.7c1-2.2,3.5-3.6,6.3-3.6c3.6,0,6.1,2.6,6.1,6.1v19.8h6.3v-19.6C314.2,271.8,309.3,266.8,301.9,266.8"/></g><g><path fill="#440f15" d="M439.6,277.6c-0.1,0-0.2,0-0.2,0l10.6-12.1l0.1-0.1v-0.6h-20.7v2.4h16.2l-11.5,13.3l-0.1,0.2l0.4,0.5l0.2-0.1c1.1-0.5,2.8-1,4.8-1c6.3,0,9.8,3.1,9.8,8.8c0,5.4-3.8,8.9-9.6,8.9c-4.5,0-8-2.2-10.1-6.3l-0.1-0.2l-2.4,1.1l0.1,0.2 c2.1,4.6,6.9,7.6,12.4,7.6c7.4,0,12.4-4.5,12.4-11.2C451.8,281.9,447,277.6,439.6,277.6"/><path fill="#440f15" d="M469.5,276.2c-1.8,0-3.4,0.4-4.6,1l8.6-12.6h-2.9l-10.1,14.5c-1.8,2.7-3.5,5.7-3.5,8.9c0,6.8,5.3,11.8,12.3,11.8c6.8,0,12-5.3,12-11.8C481.2,281.4,476.1,276.2,469.5,276.2 M469.2,297.5c-5.7,0-9.5-3.8-9.5-9.4c0-5.4,4.1-9.4,9.6-9.4c5.6,0,9.3,3.7,9.3,9.4C478.6,293.7,474.7,297.5,469.2,297.5"/><path fill="#440f15" d="M503.1,267.2c8.2,0,14.9,6.7,14.9,14.9c0,8.2-6.7,14.9-14.9,14.9c-8.2,0-14.9-6.7-14.9-14.9C488.1,274,494.8,267.2,503.1,267.2 M503.1,264.8c-9.7,0-17.5,7.8-17.5,17.5s7.8,17.5,17.5,17.5s17.5-7.8,17.5-17.5S512.7,264.8,503.1,264.8"/></g></g></svg>